IKResults
version=1
nRows=14
nColumns=42
inDegrees=yes

Units are S.I. units (second, meters, Newtons, ...)
Angles are in degrees.

endheader
time	pelvis_tilt	pelvis_list	pelvis_rotation	pelvis_tx	pelvis_ty	pelvis_tz	hip_flexion_r	hip_adduction_r	hip_rotation_r	knee_angle_r	knee_adduction_r	knee_angle_r_beta	ankle_angle_r	subtalar_angle_r	mtp_angle_r	hip_flexion_l	hip_adduction_l	hip_rotation_l	knee_angle_l	knee_adduction_l	knee_angle_l_beta	ankle_angle_l	subtalar_angle_l	mtp_angle_l	lumbar_extension	lumbar_bending	lumbar_rotation	arm_flex_r	arm_add_r	arm_rot_r	elbow_flex_r	pro_sup_r	wrist_flex_r	wrist_dev_r	arm_flex_l	arm_add_l	arm_rot_l	elbow_flex_l	pro_sup_l	wrist_flex_l	wrist_dev_l
      4.36333333	    -10.23379256	      1.32743327	     27.52434545	      0.98289241	      0.96329756	      0.01502475	     11.72854334	    -11.11974298	     -9.35353085	      9.37015972	      6.47602164	      0.16354014	      8.44560633	     -8.99759425	      7.93649426	     17.00512147	      2.93413094	     -2.54284671	     19.54125004	      5.09547410	      0.34105915	      9.74323183	     -7.87456933	      5.82081287	    -14.19137316	     -2.90024852	     -8.95910181	    -29.25888399	    -23.04000320	      8.16503360	     98.35192952	     86.55737493	      0.00000000	      0.00000000	      9.51320436	    -24.46756832	     17.30277278	     61.74317992	     87.46341084	      0.00000000	      0.00000000
      4.36999491	    -10.37663661	      1.27368974	     27.58371230	      0.98276843	      0.96305243	      0.01486130	     11.91391276	    -11.15933736	     -9.36804323	      9.44282277	      6.47602164	      0.16480835	      8.61482559	     -8.98719592	      8.30954276	     17.22838840	      2.88129739	     -2.43753646	     19.70846984	      5.09547410	      0.34397769	      9.82195725	     -7.87232648	      6.21043978	    -13.98676587	     -2.93126029	     -8.99412006	    -29.29750264	    -23.07598414	      8.36198807	     98.09132309	     86.77623314	      0.00000000	      0.00000000	      9.46317012	    -24.44786682	     17.40622183	     61.68886873	     87.56175538	      0.00000000	      0.00000000
      4.37665649	    -10.44640495	      1.22217201	     27.63886489	      0.98252348	      0.96286299	      0.01474416	     12.03263573	    -11.16813309	     -9.42025125	      9.51044998	      6.47602164	      0.16598867	      8.64003947	     -8.98119128	      8.31394024	     17.40562833	      2.78374407	     -2.28995512	     19.87655263	      5.09547410	      0.34691129	      9.81085557	     -7.85665746	      6.01392222	    -13.84721652	     -2.90677580	     -8.85163082	    -29.47973696	    -23.01902185	      8.25503275	     98.02350638	     86.94746644	      0.00000000	      0.00000000	      9.71489032	    -24.40311330	     18.14714626	     61.02927897	     87.61847551	      0.00000000	      0.00000000
      4.38331807	    -10.39228949	      1.26530901	     27.68273990	      0.98236277	      0.96298106	      0.01460598	     11.93917991	    -11.19916963	     -9.45814875	      9.48999605	      6.47602164	      0.16563168	      8.64931888	     -8.98101991	      8.22969045	     17.36563596	      2.71089797	     -2.16659435	     19.92799936	      5.09547410	      0.34780920	      9.74080724	     -7.87219938	      6.00904734	    -13.93120547	     -2.91097164	     -8.85213563	    -29.48048696	    -23.01861162	      8.03798092	     98.26740462	     86.63272047	      0.00000000	      0.00000000	      9.81090889	    -24.32881390	     17.90563247	     61.19554707	     87.59603715	      0.00000000	      0.00000000
      4.38997964	    -10.40405415	      1.18939855	     27.76067081	      0.98221304	      0.96289153	      0.01449685	     11.96351551	    -11.14350261	     -9.51681101	      9.46973886	      6.47602164	      0.16527812	      8.67859767	     -8.99178773	      8.48287118	     17.51137640	      2.54112896	     -2.05850561	     20.09419759	      5.09547410	      0.35070991	      9.82374850	     -7.78778274	      6.13620432	    -13.84270416	     -2.83872089	     -8.79376667	    -29.59021595	    -23.02643769	      8.11632522	     98.07280148	     86.86404276	      0.00000000	      0.00000000	      9.94577040	    -24.31021153	     18.47399603	     60.72401727	     87.67823495	      0.00000000	      0.00000000
      4.39664122	    -10.31879287	      1.25366435	     27.86181765	      0.98205764	      0.96306776	      0.01429131	     11.79184123	    -11.18880220	     -9.61409852	      9.40970959	      6.47602164	      0.16423041	      8.64296453	     -8.99834396	      8.43818294	     17.45160785	      2.47527817	     -1.89676281	     20.14192969	      5.09547410	      0.35154299	      9.72950830	     -7.81865191	      6.10341087	    -13.97869205	     -2.84062059	     -8.91950021	    -29.52795777	    -23.07963334	      8.04828953	     98.26701221	     86.57229405	      0.00000000	      0.00000000	      9.96232413	    -24.27101907	     18.07365727	     61.01327806	     87.62672549	      0.00000000	      0.00000000
      4.40330280	    -10.30815996	      1.25010937	     27.95907222	      0.98186785	      0.96308917	      0.01411502	     11.74185562	    -11.20408940	     -9.72883722	      9.37025563	      6.47602164	      0.16354181	      8.62595613	     -8.99704909	      8.39919213	     17.52849851	      2.37312250	     -1.74803464	     20.21944627	      5.09547410	      0.35289591	      9.65538621	     -7.83838182	      6.02565691	    -13.97795460	     -2.81577469	     -8.93861107	    -29.57394932	    -23.08188795	      8.00495766	     98.24571567	     86.58007622	      0.00000000	      0.00000000	     10.06276860	    -24.25238137	     18.24369817	     60.92682686	     87.61354608	      0.00000000	      0.00000000
      4.40996438	    -10.35485764	      1.22828372	     28.01117184	      0.98166133	      0.96297340	      0.01407166	     11.80427181	    -11.22133100	     -9.77104333	      9.38603167	      6.47602164	      0.16381716	      8.61908104	     -9.01312642	      8.44866567	     17.70921622	      2.24514284	     -1.72996227	     20.34791256	      5.09547410	      0.35513807	      9.57877334	     -7.77204010	      5.66753589	    -13.90651918	     -2.82388679	     -8.85913437	    -29.69851189	    -23.05243301	      8.05501932	     98.11160692	     86.83536249	      0.00000000	      0.00000000	     10.21583629	    -24.20371435	     18.23955287	     61.02954929	     87.47921499	      0.00000000	      0.00000000
      4.41662595	    -10.41215192	      1.17206284	     28.08125019	      0.98137124	      0.96287044	      0.01395124	     11.89360149	    -11.21779327	     -9.82374404	      9.41681616	      6.47602164	      0.16435445	      8.72998007	     -9.00188147	      8.71376570	     17.91702604	      2.11557770	     -1.58943802	     20.44254956	      5.09547410	      0.35678980	      9.64223642	     -7.75847214	      5.91844245	    -13.81132082	     -2.77782486	     -8.85711701	    -29.73336667	    -23.07208985	      8.06386380	     98.05191562	     86.86985212	      0.00000000	      0.00000000	     10.31143210	    -24.19141839	     18.83761805	     60.44967315	     87.67299651	      0.00000000	      0.00000000
      4.42328753	    -10.45858596	      1.14894501	     28.11199344	      0.98117957	      0.96281985	      0.01381380	     11.96200877	    -11.23960708	     -9.87590697	      9.44089114	      6.47602164	      0.16477463	      8.63650024	     -9.00648122	      8.57596609	     18.07436316	      1.99413697	     -1.50983200	     20.47280953	      5.09547410	      0.35731793	      9.55532988	     -7.74446726	      5.92273118	    -13.73622558	     -2.76839428	     -8.80921505	    -29.80699016	    -23.11961363	      8.11291899	     98.00023810	     86.89531895	      0.00000000	      0.00000000	     10.41919726	    -24.12051043	     18.97861861	     60.29233289	     87.67271915	      0.00000000	      0.00000000
      4.42994911	    -10.47972250	      1.12641646	     28.20546084	      0.98091425	      0.96276132	      0.01384942	     11.97634094	    -11.23632953	     -9.88799241	      9.42682100	      6.47602164	      0.16452906	      8.81109004	     -9.01886072	      9.07318169	     18.28938699	      1.84692581	     -1.47252909	     20.62425661	      5.09547410	      0.35996118	      9.52536765	     -7.68132263	      5.83156906	    -13.71155459	     -2.75456942	     -8.79718685	    -29.86353687	    -23.05953600	      7.97306095	     98.06806902	     86.85826724	      0.00000000	      0.00000000	     10.53796009	    -24.16740293	     19.51105040	     59.94622139	     87.75851778	      0.00000000	      0.00000000
      4.43661069	    -10.35825082	      1.20917664	     28.30594094	      0.98069648	      0.96302031	      0.01363408	     11.75570060	    -11.28679063	    -10.04784526	      9.34393952	      6.47602164	      0.16308251	      8.63590279	     -9.01211970	      8.56804205	     18.23345194	      1.76879323	     -1.31986716	     20.59280190	      5.09547410	      0.35941220	      9.36831438	     -7.77114372	      5.67401074	    -13.90866484	     -2.74643216	     -8.91924401	    -29.79101484	    -23.09779907	      7.84774399	     98.31181141	     86.55064262	      0.00000000	      0.00000000	     10.61276709	    -24.09236135	     18.94728494	     60.31105496	     87.65134749	      0.00000000	      0.00000000
      4.44327226	    -10.31404819	      1.21928677	     28.39555756	      0.98046498	      0.96310377	      0.01348795	     11.66099068	    -11.29498719	    -10.14831657	      9.27405256	      6.47602164	      0.16186275	      8.54244518	     -9.01744257	      8.32274531	     18.33701051	      1.64260094	     -1.24244747	     20.63072827	      5.09547410	      0.36007414	      9.32892617	     -7.71032941	      5.60808975	    -13.97206983	     -2.70743964	     -8.99275213	    -29.78917343	    -23.15543100	      7.90732827	     98.30252238	     86.58627668	      0.00000000	      0.00000000	     10.66257895	    -24.05681212	     18.78140983	     60.47536445	     87.61474260	      0.00000000	      0.00000000
      4.44993384	    -10.34143120	      1.20130691	     28.46487903	      0.98020717	      0.96307071	      0.01340771	     11.69121805	    -11.31397026	    -10.22673182	      9.27688816	      6.47602164	      0.16191224	      8.52232860	     -9.01810404	      8.31687764	     18.55539471	      1.51404333	     -1.17454582	     20.69611855	      5.09547410	      0.36121541	      9.27161921	     -7.71270226	      5.64931453	    -13.93678795	     -2.69909812	     -9.00298230	    -29.81033927	    -23.16919865	      8.01432361	     98.12957541	     86.75129251	      0.00000000	      0.00000000	     10.75912824	    -24.04558853	     18.97596472	     60.30299727	     87.61201582	      0.00000000	      0.00000000
